<svg xmlns="http://www.w3.org/2000/svg" viewBox="0 0 1200 700"><rect width="1200" height="700" fill="#050c14"/><g opacity="0.15"><line x1="-200" y1="0" x2="0" y2="700" stroke="#c8a96e" stroke-width="0.5"/><line x1="-120" y1="0" x2="80" y2="700" stroke="#c8a96e" stroke-width="0.5"/><line x1="-40" y1="0" x2="160" y2="700" stroke="#c8a96e" stroke-width="0.5"/><line x1="40" y1="0" x2="240" y2="700" stroke="#c8a96e" stroke-width="0.5"/><line x1="120" y1="0" x2="320" y2="700" stroke="#c8a96e" stroke-width="0.5"/><line x1="200" y1="0" x2="400" y2="700" stroke="#c8a96e" stroke-width="0.5"/><line x1="280" y1="0" x2="480" y2="700" stroke="#c8a96e" stroke-width="0.5"/><line x1="360" y1="0" x2="560" y2="700" stroke="#c8a96e" stroke-width="0.5"/><line x1="440" y1="0" x2="640" y2="700" stroke="#c8a96e" stroke-width="0.5"/><line x1="520" y1="0" x2="720" y2="700" stroke="#c8a96e" stroke-width="0.5"/><line x1="600" y1="0" x2="800" y2="700" stroke="#c8a96e" stroke-width="0.5"/><line x1="680" y1="0" x2="880" y2="700" stroke="#c8a96e" stroke-width="0.5"/><line x1="760" y1="0" x2="960" y2="700" stroke="#c8a96e" stroke-width="0.5"/><line x1="840" y1="0" x2="1040" y2="700" stroke="#c8a96e" stroke-width="0.5"/><line x1="920" y1="0" x2="1120" y2="700" stroke="#c8a96e" stroke-width="0.5"/><line x1="1000" y1="0" x2="1200" y2="700" stroke="#c8a96e" stroke-width="0.5"/><line x1="1080" y1="0" x2="1280" y2="700" stroke="#c8a96e" stroke-width="0.5"/><line x1="1160" y1="0" x2="1360" y2="700" stroke="#c8a96e" stroke-width="0.5"/><line x1="1240" y1="0" x2="1440" y2="700" stroke="#c8a96e" stroke-width="0.5"/><line x1="1320" y1="0" x2="1520" y2="700" stroke="#c8a96e" stroke-width="0.5"/></g><circle cx="900" cy="350" r="300" fill="none" stroke="#c8a96e" stroke-width="1" opacity="0.1"/><circle cx="900" cy="350" r="200" fill="none" stroke="#4a7fa5" stroke-width="1" opacity="0.08"/><circle cx="200" cy="600" r="200" fill="none" stroke="#c8a96e" stroke-width="0.5" opacity="0.06"/></svg>